/* XPM */
static char *a212d6ed5e904d448ee1e77bbe2b2bf61pzyWNq8UAoW2Td6[] = {
/* columns rows colors chars-per-pixel */
"64 64 34 1 ",
"  c gray20",
". c #393939",
"X c #3F3F3F",
"o c #434343",
"O c gray27",
"+ c #4B4B4B",
"@ c gray30",
"# c gray32",
"$ c gray33",
"% c #5A5A5A",
"& c gray36",
"* c #606060",
"= c #656565",
"- c #686868",
"; c #6D6D6D",
": c #717171",
"> c #747474",
", c #797979",
"< c gray50",
"1 c #818181",
"2 c #848484",
"3 c #898989",
"4 c #8D8D8D",
"5 c #909090",
"6 c gray59",
"7 c #989898",
"8 c #9F9F9F",
"9 c #A0A0A0",
"0 c #A7A7A7",
"q c #A9A9A9",
"w c #AEAEAE",
"e c gray70",
"r c gray71",
"t c #B9B9B9",
/* pixels */
"17190963-.3q04<5=5083-+&2@#=;23&<t;34:2,574,:-27eqq8*=25<*o%6674",
"7211773<*.>1595<*=33<-&877041=<435300734&&==*24qe007>$=;%+#29wq9",
"05,;33<>&;23<36> >1>;*;59064,,408,46643>-:-=15qq9962-#383::6qeqq",
"86>#*;-&#497<,>-#;04-&15863<268071,6631;=377468975<;&;3we0<57000",
"52=+,8-;*5894,-@*9e04>52462>27971;;583,;2qw91,662>--<69ewq6<:167",
"2;#69665<+<32>-&47rw8511575,>34<*&<872,<6q004:11:*=,59qqq084==;2",
":%39qw761+%521;;50r986423241;:>=+X:74<>279996<-=%#=59q099963;%,;",
"=<8wq874;%18q75<370766412<<>**--@.1962>156763,=&%#24qq09863,=<14",
"=69q863>*,908642,473121>>1<:$-04&$4073;;1344<-*&<328898653<=:708",
",31683:*=2786432133:&:>;11>::5633*273<;*;<343>,5588734432>-17088",
":#:54>%*166642111,>%o%,>1:-169684$-1==>,<21213369992>->>:*168886",
"*.-1>%@=26531,<1>,>*o=589<<37986>X%7214355443653157<=4-***599662",
"$@263=:1,12<::>>,1,2=>69q7<;,22,$+1qw097745022,=-65,3642<,11342;",
"@-5ww04;><,>;&*:2221<368861***=*+>8eq99994684:%@>q62ww64<:-*&;-*",
"#29wq863,3:<*#$153335996653;=57e=5wq988873153>=;6w0weq5>&,%:1@X#",
"2977863<,1441:2186772676651;*5qw559987774,;<:=;,6ee977,O3545,+#:",
"w72;42:*-2785346w097:<35431;>8ew7=365433,--32;266001<,@,6754>&10",
"e7-;,:*#&37635990096,&-,11>*>9ew7>-,<;;-*:788688136<$$,1341>*30t",
"97,1482=458646977763:#->;>=-5qq95;%,:%&&:8q00q84;,<&+*214<;%,9ee",
"5<;<8q8668841264243,=&265:*29e071*;39522<4q7863>:25>$%1>>*%&50q9",
";=17qq878432,:,1>22>=>6095<24474;$49w074#<962;**,472-@-<,>=-4883",
"+>60q8707,*23:-*=15>;68q983-->4,%#5weq94=375>%#;,354>,<3663;>43-",
"@40076873*;481;:*,2>:680986<**-*O38we085<,<1-*:679872444554<3<-@",
"45774341=&797,;5431=;7q7631,*+@+=2eew984,$&-:<<67w0633318555<-;=",
"q0641:-=#,792=39782;=4862:*%@+:>68wwq062;#<460925993<1114765,-8q",
"w3531<>%&573>-707973;452;%@=&>405;7q084,=&39ww922773::>15662>5qt",
"72>6q81;38<;,7896662=<<;#O%647683%28851:%;5eew91;12,$%-2464<,477",
"<-,8w942371&189853<:&$=-%X,74886<@>21>-*%>7re06>$=;%@-580544485<",
"6289952>493:;2451>;&$>84=#,44652-+495444&,0wq72;#664;49qw0633797",
"<27951:,6q7;$#->;%$$;<6<43<>>21:&&6wew993%>675,*:6we7757w07<-<34",
"*354,--40q03&%$*@.&;<-:6872-$***$:8wwqq82X,<;:*%59ee96>2q94=%;,-",
"&<,;*$:8wq95,-<5;1472<4962;#;3-&$48wqq96,o<83=$=50wq8<$=2<*+*3<@",
"<e>45>2,574,:-27w0q8&=24<*O%6674<6180963;.3q94<4=4984-+&4&&-;23&",
"35300734&&==*24qe007>$=;%+#29wq97211773<*.>1596<*=33<-&877041=<4",
"8,46643>-:-=16qq9962-#383::6qeqq05,;33<>&;23<36> >1>;*;59064,,40",
"71,6631;=377568975<;&;3we0<5700086>#*;-&#497<,>-#;04-&15863<2680",
"1;;583,;1qw91,662>--<69ewq6<:16752=+,8-;*5894,-@*9e04>52462>2797",
"*&<872,<6q005:11:*=,59qqq084==;22;#69665<+<32>-&47rw8511575,>341",
"+X:74<>279996<-=%#=59q099963;%,;;%39qw761+%521;;50r986423241;:>=",
"@.1962>156763,=&%#24qq09863,=<14=<8wq874;%18q75<370766412<<>**--",
"*$4073;;1344<-*&<328898653<=:708-69q863>*,908642,473121>>1<:$-04",
"4*273<;*;<343>,5588734432>-17088,31683:*=2786432133:&:>;11>::562",
"4$-1==>,<21213369992>->>:*168886:#:54>%*166642111,>%o%,>1:-16978",
">X%7214355443653157<=4-***599662=.-1>%@=26531,<1>,>*o=589<<37986",
"$+1qw097745023,=-65,3642,,11342;$@263=:1,121::>>,1,2=>69q7<;,22,",
"+>8eq99994684:%@>q62ww64<:-*&;-&@-5ww04;><,>;&*:2221<368861***=*",
"=5wq088873153>=;6w0weq5>&,%:1@X##29wq863,3><*#$153335996653;=57e",
"559987774,;<:=;,6ee977,O3555,+#:2977863<,1441:2186772676651;*5qw",
"8=365433,--32;266001<,@,6754>&10q72;42:*-2785346w097:135431;>8ww",
"8>-,<;;-*:788688136<$$,1341>*30te7-;,:*#&37635090096,&-,11>*>9ew",
"5;%,:%&&:8000q84;,<&+*214<;%,9ee97,1482=458546977763:#->;>=-5qq9",
"1*;39522<4q7862>:25>$%1>>*%&50q95<;<8q8668741264243,=&265:*29e07",
"-$49w074#<962;**,472-@-<,>=-4883;=17qq878432,:,1>22>=>6095<24474",
"%#5weq94=375>%#;,354>,<3663;>43-@>60q8707,*23:-*=15>;68q983-->4<",
"O38we085<,<1-*:679872444554<3<-@@40076873*;481;:*,2>:680986<**-*",
"=2wew984,$&-:<<67w0633318555<-;=35774341=&797,;5431=;7q7631,*+@@",
"68wwq062;#<460925992,1114765,-8q00641:-=#,792=39782;=4862:*%@+:>",
"5;7q084,=&39ww922773::>15662>5qtw3531<>%&573>-707973;452;%@=&>40",
"3%28851:%;5eew91;12,$%-2464<,47772>6q81;38<;,7897662=<<;#O%64868",
"<@>21>-*%>7re06>$=;%@-580544485<<-,8w942371&189853<:&$=-%X,74886",
"-+495444&,0wq72;$664;49qw06337976289952>493:;2451>;%$>84=#,44652",
"&&6wew993%>675,*:6we7757w07<-<34,27951:,6q7;$#->;%$$;<6<43<>>21>",
"$:8wwqq82X,<;:*%59ee96>2q94=%;,-&354<--40q03&%$*#.&;<-:6872-$***",
"%48wqq97<o<84=$=50wq8<%=54:$*3<@&,<,-%:8qq95,-<6;1472<4863;$;4-&"
};
