/* XPM */
static char *_170c60fc5b24dc3cebd1a9b67be3034wYDWjA9e6IpTAAj3[] = {
/* columns rows colors chars-per-pixel */
"64 64 189 2 ",
"   c #0E0904",
".  c #150D05",
"X  c #170F06",
"o  c #1C1206",
"O  c #1D1409",
"+  c #211507",
"@  c #271807",
"#  c #2A1A07",
"$  c #211609",
"%  c #25190B",
"&  c #2B1D0C",
"*  c #311F0A",
"=  c #261B10",
"-  c #2B1F11",
";  c #2F200E",
":  c #34220D",
">  c #3A260E",
",  c #3F280F",
"<  c #2D2111",
"1  c #342412",
"2  c #392712",
"3  c #372817",
"4  c #3C2A14",
"5  c #3E2D19",
"6  c #412A0E",
"7  c #4A2F0F",
"8  c #4F310E",
"9  c #51320E",
"0  c #432D13",
"q  c #492F10",
"w  c #422F19",
"e  c #473016",
"r  c #4C3215",
"t  c #45311A",
"y  c #4C351B",
"u  c #4E381E",
"i  c #533614",
"p  c #563916",
"a  c #5C3B15",
"s  c #503619",
"d  c #543A1B",
"f  c #5B3D1B",
"g  c #623E14",
"h  c #603F19",
"j  c #4D3921",
"k  c #553D22",
"l  c #583F22",
"z  c #5E401D",
"x  c #654117",
"c  c #6A4315",
"v  c #63431D",
"b  c #6B451A",
"n  c #6D491D",
"m  c #724715",
"M  c #734916",
"N  c #734B1C",
"B  c #7A4F1E",
"V  c #7C511E",
"C  c #5D4223",
"Z  c #634522",
"A  c #694621",
"S  c #654825",
"D  c #6B4A23",
"F  c #634729",
"G  c #634829",
"H  c #6C4E2A",
"J  c #724D23",
"K  c #6C512F",
"L  c #755125",
"P  c #7C5324",
"I  c #74522B",
"U  c #7C562A",
"Y  c #7D592E",
"T  c #745430",
"R  c #795731",
"E  c #7D5A31",
"W  c #84541D",
"Q  c #88561E",
"!  c #8C5A1F",
"~  c #955D1D",
"^  c #995F1D",
"/  c #95601F",
"(  c #9D621E",
")  c #A0631F",
"_  c #825624",
"`  c #855926",
"'  c #8B5C24",
"]  c #805729",
"[  c #835B2B",
"{  c #8B5E2A",
"}  c #935E22",
"|  c #835E34",
" . c #8C602D",
".. c #946126",
"X. c #9B6424",
"o. c #93642C",
"O. c #9A662B",
"+. c #9C692D",
"@. c #876133",
"#. c #8C6333",
"$. c #8F6638",
"%. c #936532",
"&. c #986730",
"*. c #956935",
"=. c #9C6B33",
"-. c #956B3B",
";. c #9B6E39",
":. c #9D713D",
">. c #A16624",
",. c #A56A23",
"<. c #AB6C23",
"1. c #A26C2C",
"2. c #A96F2B",
"3. c #A6702E",
"4. c #AC722D",
"5. c #B37226",
"6. c #BB7727",
"7. c #B3752D",
"8. c #B9772A",
"9. c #BB7A2D",
"0. c #A36E32",
"q. c #A86F31",
"w. c #A26F38",
"e. c #A47135",
"r. c #AB7434",
"t. c #AF7837",
"y. c #A4733A",
"u. c #AB7639",
"i. c #AC793C",
"p. c #B27632",
"a. c #B47934",
"s. c #BA7C35",
"d. c #B47C3C",
"f. c #BA7F3B",
"g. c #C27A27",
"h. c #C17F32",
"j. c #976F40",
"k. c #9D7241",
"l. c #A37642",
"z. c #A67943",
"x. c #AC7C43",
"c. c #B17D41",
"v. c #BF8137",
"b. c #B7803E",
"n. c #BC813C",
"m. c #C58334",
"M. c #CA8534",
"N. c #C3843B",
"B. c #C88539",
"V. c #CB8A3D",
"C. c #D18936",
"Z. c #D38F3E",
"A. c #D3903F",
"S. c #DB913B",
"D. c #B68245",
"F. c #BC8442",
"G. c #B5834A",
"H. c #BB8649",
"J. c #BD894C",
"K. c #BF8C52",
"L. c #C28642",
"P. c #C58A44",
"I. c #CD8D42",
"U. c #C58C4C",
"Y. c #C88D4B",
"T. c #D18F43",
"R. c #CC914E",
"E. c #D49143",
"W. c #D2944C",
"Q. c #D6984F",
"!. c #DA9A4E",
"~. c #C28F52",
"^. c #CB9452",
"/. c #CB9457",
"(. c #D39752",
"). c #D49953",
"_. c #DE9D51",
"`. c #D49D5A",
"'. c #DB9E59",
"]. c #E29C48",
"[. c #E09F53",
"{. c #DBA05C",
"}. c #EFA857",
"|. c #E0A259",
" X c #E6A65A",
".X c #ECAB5D",
"XX c #F0AA58",
"oX c #F4B264",
"OX c #F8B567",
/* pixels */
"@.{.oX~.G.k = O I E $.Y Z f w w  .f.L ` ' z : : 0 N ,.W N a 7 # c ~ ^ Q x 6 + 6 1.7.4.b P P w f t.[ Z *.;.Z 5 I J.R.^.:.l.-.C 5 ",
"K K.`.l.k.y $ $ -.H.c.#.D f w w D 0.` ` ..b > : 6 V 8.>.,.c * # m ~ <.( V p : r N V N n ` J 1 : z A D u.c.I y H D.Y.).E I | j 1 ",
"y l.~.G.G.C - 3 R.XX XL.*.I f e d o.O.+.O.P q : : N <.<.<.g # + M ~ ,.~ W p o + r i f P O.J 4 : Z { %.t.d.H 5 l D.Y.G.I I T 3 O ",
"j k.j.k.l.R 5 t i.).W.F.[ Z r 4 f ' 0.e.1.` q : > V <.<.X.g # o M <.<.~ W 7 .   r P ..1.p.P s e { n.L.e.y.H 4 u $.| #.| | F 1 O ",
"G :.$.-.-.R 3 5 *.Q.).F.I y 1 & f 0.a.1...N > # > b X.X./ g @ o M 6.6.,.Q 7 o o V 9.S.M.a.L r y [ t.e.] [ Z 4 S -.E :.x.-.Z 1 % ",
"E ^.'.^.G.| t 5 Y Y._.w.D e & & A V.B.p.O.b : # p x ,.X.} p o . x 5.X.m p 6 @ : X.9.C.2.' p 4 e { d.d.{ ] I u I l.:.{.U.x.H 1 - ",
"-.|.oX^.x.H w 3 D x.;.Z Z d 2 1 U V.r.P P h > > B b } X.Q > . . b X.X.Q h i * , ` 8.h.P b r : e { =.u.*.;.[ S @.y.#.^.G.l.U 1 - ",
"l.^.^.:.$.C 4 1 H D.y.Z I A d y { N.r.P P b 0 0 ` x V } Q 6 o $ b X.X.,.} b : : W 4.} P ' P p s P o.f.n.y.H t C -.:.^.Y.Y.x.y w ",
";.H.x.*.@.Z 3 2 Y R.W.*.b.%.d r { s.{ P ' a * > V h V X.' a & : ` 7.7.2.X.b * & n O.` ' O.N d r L P J L Z y 1 t Y x.c.;.@.I w w ",
"| D.c.;.[ D w w | W.L.[ %.U e 0 P p.+.` { h : 0 N a V .._ N : > ..h.m.7.2.a % % N 2...1.+.v w 2 Z e.w.] H D t u @.*.Y U H Z 3 < ",
"H @.#.@.I Z 4 5 *.e.%.#.e. .2 $ s O.r.+.{ n r b n x _ 1...' > 4 ..m.h.1.' q + $ N 4.2.1.O.J r e v 0.e.%.[ J t d *.*.*.e.i.-.y - ",
"d H [ *.@.H w 1 J J #.e.y.] 0 $ y ..a.0.{ n q f p n ..2.' N : 4 ` r.7.O.N > $ & ' p.a.+.1.P r w v =.u.=.*.U w y %.;.y.P.L.;.1 $ ",
"Z d.F.F.d.[ t 3 L ] i.F.d.] e : ` n.V.r.{ f : 0 0 P p.a.{ f : w ..p.p.O.x 0 : q +.B.s.{ ` f # $ e O.d.r.*.J 4 d i.d.F.n.F.%.& O ",
"Z d.I.P.I.o.t 1 A o.t.d.=.U d 1 A t.a.O._ s $ % 2 _ m.r.{ d : : v ' O.U p f > 0 ' s.0.' ` r $ . w o.f.u. .Z 2 d u.d.d.d.i.U $ . ",
"C e.L.f.N.U : & J d.L.n.w.L e & d t.V.[ J r $ : d ` r.O._ d 1 ; v  .+.U f v : : U r.1.{ { e $ o e w.d.u.L w % 1 v P U U L v 1 O ",
"d  .u.L.u.d % % ] N.0.=.0.J : $ y e.T.=.{ v ; r  .u.V.p.P A 4 & f r.a. .n A : % J 0.O...o.d % % d r.T.d.] w $ @ z  .[ P z Z 2 $ ",
"d &.=.N.n.s % % U a.O.O.=.s $ O D N.V.=.o.v 2 d O.0.n.f.{ ] 5 % e =.e.U A v 1 ; { N.=.o.=.v 1 1 Z d.].d._ 0 O 1 =.I.V.d.=.U : $ ",
"L n.N.N.s.d % O n O.o.r.N.v % % [ f.f.=.] A w z d.I.E.f.`  .w O y r.{ v Z v 4 4 0.I.0.*.o.f & 1 J r.V.r.P 4 . 1 r.Z.E.O.] A : & ",
"r ` 0.r...4 O o n +.+.a.f.d o % ` u.i.e.L Z w d =.e.e.%.Z C 1 % D d.e.[ ] L e y *.t.=.*.;.d & ; J 0.a.+.P 4 . : 1.a.A.{ v r % % ",
"0 _ q.r._ : . o P s.s.a.e.w     A o.t.%.A L e 5 L U U L A Z 1 < C e.F.;.%.U y z  .e.=.=.*.d & : U 0.O.A d > $ e a.B.B.J r : $ . ",
"b r.a.p.b & . & O.S.Z.v.+.e .   [ =.] D [ U 1 % z [ #.=.d.[ 4 y H i.u.w.*.[ w y z [ =.i.e.H w 1 P e.` f s r 0 v 1.` _ n f 4 & & ",
"4.S.M.7.p & o 0 7.s.+.P J q $ : r.I.w.*.i.D & O Z D.F.W._.[ 1 d U c.c.;.*.I 1 1 Z %.d.P.d.L 2 % v s.` v P J p p n x b N n p r s ",
"' S.C.4.r : $ r 1.2.P h z e : e O.d. .r.e.C & 1 y.}.L.W.W.I 1 k I y.R.Y.F.Y 3 1 I c.!.P. .d $ o v N._ f ..` r : r a n N ` V v r ",
"r X.7.` q > & p 2.2.V n J v e d ] f.P ] { s 1 w U *.Y *.-.D < d D H y.%.[ l t t [ L.!.i.A 2 O $ U 0.J J O.n * % q M ` X.X._ r : ",
": V 4.W r p 6 a ' 1.' P o.' x p J e.P U  .d 1 < t S S U I u % % t C ;.z.*.C 3 w | F.Y.=.L d % % v D b o.4.f % o x ,.9.M.5.M : + ",
"q ..8.Q a b r i ..7.4.o.7.+.d : 4 v o.=.#.f t 1 t $.-.l.-.E 2 O 3 E H.R.x.I 5 t Y Y.W.d.y.L 2 0 D J ` 1.o.s % & ` 9.' B b > o . ",
"a X.,.} M c r > B 4.m.1.3.J : O % f =.e.%.d d 4 C ).`..X'.l.k < F U..X XJ.@.u Z x.[.Q.F.u.D & 1 D { a.p.O.r # : N >.Q n N > . . ",
"! ,.,.,.~ p q : b 2.s.+.+.p o . 5 =.L.i.%.C d 5 l ). XOX{.-.w = C ^..X).J.| 3 3 H #.#.%.#.d O & A D a.p.+.r % % a } V b W a : > ",
"Q >.<.5.6.p : % h ..7.+.O.w .   f n.I.F.d.I d 3 u G.(.).^.H - $ j /.'.G.x.H % < Y x.;.[ [ y % ; A v 1.+.o.s % + a } ' ! X.g * 6 ",
"g ) g.6.<.i # + b X.9.P L 4 o   z e.P.i.[ y & & k x.J.G.J.R 3 = j x.z.T I t . $ I D.i.;.;.D 1 : D A O.p.1.b * # x <.,.5.5.g + + ",
"8 ( ~ g p : o + B 4.h.n J d & & { e.F.*.D 3 O 1 E H.H.J.x.H 3 < k G./.l.-.l $ O I ;.x.i.@.U 2 & J O.=.s.r.J 0 : h 2.8.8.~ 6 o . ",
"9 ( ~ M p & . o W 7.m.v _ J w e e.*.#.y.@.y - C x.Y.~.G.l.C 2 = H /.OX/.K.H 1 % $.U.(.Y.I I 1 % A n. .a.r.N > & q M Q c p > @ . ",
"c ~ ^ Q x 6 $ 6 1.7.4.v P P w f t.[ Z *.;.Z 5 I J.R.^.:.l.j.C 5 @.{.oX~.G.k % O I E $.Y Z f w w  .f.L ` ' z : : 0 N ,.W N a 7 # ",
"m ~ ) ( V p : r N V N n ` J 1 : z A D i.c.I y H D.Y.).| T E j 1 K K.`.l.k.y $ $ -.H.c.$.D f w w D 0.` ` ..b > : 6 V 8.>.,.c * # ",
"M ~ ,.~ W p o + r i a P O.J 4 : Z { %.t.d.H 5 l D.Y.G.I T T 3 O j k.~.G.G.C - 3 R.XX XL.*.I f e d o.o.+.O.P q : : N <.<.<.g # + ",
"M <.<.~ W 7 .   r V ..1.p.P s e { n.L.e.y.H 4 u $.| #.| | F 1 O j k.j.k.l.R 5 t i.).W.F.[ Z r 4 f { 1.e.1.' q : > V <.<.( g # o ",
"M 6.6.,.Q q o o V 9.S.M.a.L r y [ t.e.] [ Z 4 S -.E y.x.-.Z 1 = G k.$.-.-.R 3 5 *.Q.).F.I y : & f 0.a.1...n > # > b X.X./ g @ o ",
"x 5.X.m p 6 @ : X.9.C.2.' p 4 e { d.d.{ ] I u I l.:.|.U.x.H 1 - E ^.'./.G.| t 4 Y Y._.w.D e & & A V.B.p.O.b : # p x ,.X.} p o . ",
"b X.X.Q h i & , ` 8.h.P b r : e { =.u.*.;.[ S @.i.#.^.G.l.U 1 - -.|.oX^.x.H w 3 D x.;.Z Z d 2 1 U V.r.P P h > > B b } X.Q > . . ",
"b X.X.,.} b : : W 4.} P ' P p s P o.f.n.y.H t C -.:.^.Y.Y.x.y w l.^.^.:.$.C 4 1 H D.y.Z I A d y { N.r.P P b 0 0 ` x V } ` 6 o $ ",
"` 7.7.2.X.b * & n O.` ' O.N d r L P J L Z y 1 t Y x.c.;.@.I w w ;.H.x.*.@.Z 3 2 Y R.W.*.b.%.d y { s.{ P ' a * > V h V X.' a & : ",
"..h.m.7.2.a % % N 2...1.+.v w 2 Z e.w.] H D t u @.*.Y U H Z 3 < | D.c.;.[ D w w | W.L.[ %.U e 0 P p.+.` { h : 0 N a V .._ M : > ",
"..m.h.1.' q + $ N 4.2.1.O.J r e v 0.e.%.[ J t d *.*.*.e.i.-.y - H @.#.@.I Z 4 5 *.e.%.#.e. .2 $ s O.r.+.{ n r b n x _ 1...' > 4 ",
"` r.7.O.N > $ & ' p.a.+.1.P r w v =.u.=.*.U w y %.;.y.P.L.;.1 $ d H [ *.@.H w 1 J J #.e.y.] 0 O y ..a.0.{ n q f p n ..2.} N : 4 ",
"..p.p.O.x 0 : q +.B.s.{ ` f # $ e O.d.r.*.J 4 d i.d.F.n.F.%.& O Z d.F.F.d.[ t 3 L ] i.F.d.] e : ` n.V.r.{ f : 0 0 P p.a.{ f : w ",
"v ' O.U p f > 0 ' s.0.' ` r $ . w o.f.u. .Z 2 d u.d.d.d.i.U $ . Z d.I.P.I.%.e 1 A o.t.d.=.U d 1 A a.a.O._ s $ % 2 _ m.r.{ d : : ",
"v  .+.U f v : : U r.1.{ { e $ o e w.d.u.L w % 1 v P U U L v 1 O C e.L.f.N.U : & J d.L.n.w.L e & d t.V.[ J r $ : d ` e.O.U d 1 ; ",
"f r.a. .n A : % J 0.O...o.d % % d r.T.d.] w $ % z  .[ P z Z 2 $ d  .u.L.u.d % % ] N.0.=.0.J : $ y e.T.=.{ v ; r  .u.V.u.P A 4 & ",
"e =.e.U A v 1 ; { N.=.o.=.v 1 1 Z d.].d.U 0 O 1 =.I.V.d.=.U : $ d &.=.N.n.s % % U a.O.O.=.s $ O D N.V.=.o.v 2 d O.0.n.f.{ ] 5 % ",
"y r.{ v Z v 4 4 0.I.0.*.o.f & 1 J r.V.r.L 2 . 1 r.Z.E.O.] A : & L n.N.N.s.d % O n O.o.r.N.v % % [ f.f.=.] A w z d.I.E.f.`  .w O ",
"D d.e.[ ] L e y *.t.=.*.;.d & ; J 0.a.+.P 2 . : 1.a.A.{ v r % % r ` 0.r...4 O o n +.+.a.f.d o % ` u.i.e.L Z w d =.e.e.%.Z C 1 % ",
"z e.F.;.%.U y z  .e.=.=.*.d & ; U 0.O.A p > $ e a.B.B.J r : $ . 0 _ q.r._ : . o P s.s.a.e.w     n o.t.%.A L e 5 L U U L A Z 1 < ",
"H i.u.w.*.[ w y z [ =.i.e.H w 1 P e.` f s r 0 v 1.` _ n f 4 & & b r.a.p.b & . & O.S.Z.v.+.e .   [ =.] D [ U 1 % z [ #.=.d.[ 4 y ",
"U c.c.;.*.I 1 1 Z %.d.P.d.L 2 % v s.` v P J p p n x b N n p r s 4.S.M.7.p & o 0 7.s.+.P J q $ : r.I.w.*.i.D & O Z D.F.W._.Y 1 d ",
"I y.R.Y.F.Y 3 1 I c.!.P. .d $ o v N._ x ..` r : r a n N ` V b r ' S.C.4.r : $ r 1.2.P h z e : e O.d. .r.e.C & 1 y.}.L.W.R.I 1 k ",
"D H y.%.[ l t t [ L.!.i.A 2 O $ U 0.J J O.n * % q M ` X.X._ r : r X.7.` q > & p 2.2.V n J v e d ] f.P ] { s 1 w U *.Y *.-.S < d ",
"t C ;.z.*.C 3 w | F.Y.=.L d % % v D b o.4.f % o x ,.9.M.5.M : + : V 4.W r p 6 a ' 1.' P o.' x p J e.P U  .d 1 < t S S U I u % % ",
"3 E H.R.x.I 5 t E Y.W.d.y.L 2 4 D J ` 1.o.s % & ` 9.' B b > o . q ..8.Q a b r i ..7.4.o.p.+.d : 4 v o.=.#.f t 1 t $.-.l.-.E 2 O ",
"F U..X XJ.@.u Z x.[.Q.F.u.D & 1 D { a.p.O.r # : N >.Q n N > . . a X.,.} M c r > B 4.m.1.3.J : o % f =.e.%.d d 4 C ).`..X'.l.k < ",
"C ^..X).J.| 4 3 H #.#.%.#.d O & A D a.p.+.r % % a } V b W a : > ! ,.,.,.~ p 7 : b 2.s.+.+.p o . 5 =.L.i.%.C d 5 l ). XOX{.-.w = ",
"y ^.'.G.x.H % < Y x.;.[ [ y % & A v 1.+.o.s % + a } ' ! X.g * 6 Q >.<.5.6.p : @ h ..7.+.O.w .   f n.I.F.d.I d 3 u H.(.).^.H - $ ",
"y x.z.T I t . $ I D.i.;.;.D 1 : D A O.p.1.n * # x <.,.5.5.g + + g ) g.6.<.i # + b X.9.P L 4 o   z e.P.i.[ y & & k x.J.G.J.R 3 = ",
"k G./.l.-.l O O I ;.x.i.@.U 2 & J O.=.s.r.J 0 : h 2.8.8.~ 6 o . 8 ( ~ g p : o + B 4.h.n J d & & { e.F.*.D 3 O 1 E H.H.J.x.H 3 < ",
"H /.OX/.K.H < = $.U.(.Y.I I 1 % A n. .a.r.N > & 6 M Q c p > @ . 9 ( ~ M p & . + W 7.m.b _ J w e e.*.#.y.@.y - C x.Y.U.G.l.C 2 = "
};
