/* XPM */
static char *_08295c93b414d49c1791022a44abf96cedlJWJHSP9VDxtx[] = {
/* columns rows colors chars-per-pixel */
"64 64 78 1 ",
"  c gray18",
". c #353535",
"X c #3C3C3C",
"o c #444444",
"O c #4C4C4C",
"+ c #535353",
"@ c #595957",
"# c #5B5B5B",
"$ c #636363",
"% c #676969",
"& c #6C6C6C",
"* c #706F6F",
"= c #6F6F70",
"- c #6F7171",
"; c #747474",
": c #787777",
"> c #7B7B7B",
", c #7F807F",
"< c #7F7F80",
"1 c #807F80",
"2 c #848484",
"3 c #8B8B8B",
"4 c #908F8F",
"5 c #8F908F",
"6 c #8E8E90",
"7 c #949494",
"8 c #979897",
"9 c #989897",
"0 c #9B9B9B",
"q c #9FA09F",
"w c #A0A09E",
"e c #9F9FA1",
"r c #A3A3A3",
"t c #A7A8A7",
"y c #A8A8A7",
"u c #A9A9A9",
"i c gray67",
"p c #ACACAB",
"a c #ACABAC",
"s c #AFAFAF",
"d c #B0B0AF",
"f c #AFAFB0",
"g c #B0AFB0",
"h c gray69",
"j c #B3B3B3",
"k c #B5B6B6",
"l c #B8B7B7",
"z c #B7B7B8",
"x c gray72",
"c c #BBBBBB",
"v c #BCBBBB",
"b c gray",
"n c #BFC0BF",
"m c #BFBFC0",
"M c gray76",
"N c #C5C5C5",
"B c #C7C8C7",
"V c #CBCBCB",
"C c gray80",
"Z c #CFD0D0",
"A c #D2D2D2",
"S c #D4D4D4",
"D c #D7D7D7",
"F c #D8D8D7",
"G c gray85",
"H c #DBDBDB",
"J c #DBDBDC",
"K c #DEDFDE",
"L c #DFE0E0",
"P c #E1E1E1",
"I c #E7E7E7",
"U c #E8E7E7",
"Y c gray91",
"T c #EEEEEE",
"R c #F3F3F3",
"E c #F6F6F6",
"W c gray98",
"Q c gray99",
/* pixels */
"sAhksxkks03rr0:$#2X&hr%$$&=#AS:Nh0#80bb&#+O:X7r$$2328r$ur:2:%oo$",
"s:;3708083;hAKFx333V8$#::232STVkk2O3sAACbh>;$8:$233>20:;73#.o+2N",
"23rur0333>okQWSBbVbM>$&22733xxr7h:@:227w0r00uk27053::82O238>$;kk",
"07ru78>83>ohE03,2r>sr;233222hs3+03%8>3302:>0As00832;$:%+uzk3+0Tr",
"327r7>:082obS32:;3:2lM>%:237us3+3r32;>300>%hG08732;++O+8VN0:2UY0",
"2>&:737sr2OSS>:&%2077V0#$%7skx0$2rk0>:208:$Ph0732:$+o:kAk:28+IJr",
":&;:ssruu3+GS3<:%3us%uh:2rkkr0r2$8bku720323S83322#Xo7ITr37rrXSAr",
"8$$:380ur2+AV32:$>0r3&h07usr3:72+NIAAVhk83h03>2:$ OrSV3300r7OxAC",
"Axr;+#273:#SV3>&%:703#rrNCr32$:2+Ku830rM7;0;$+OOoO:M03377303+hGS",
"MsMCb8:+##$NN2:;:27r0O08uGx>;%:2+Vr080rr:;2>:>;:%:0Nr:23:>38OaNV",
";;7vNVCx7&2xh2337rrr2Or0rN00>+;;+N083703+;20MAx0>2bGAb322337XhN0",
"#$%::3xsr78hr:300uu0%#s83733h7##%C83333:X$7ASC0>:2uMCCZb2>:$#xk$",
"+#%;::72::8r::300uur%>Vs427:hhu00A33222.#:ubr0227rCb08sACx&O3r0+",
"&$$$&&33>$0hhs337803:3CC733202txCV3&%*.+3hur8330rrVbbr2bMx:20s3;",
"::;$&>0r>+uMSbs0280223nV7773rr3>hbu>+o#6hrsb733rr0kNk3$0kpr03x;;",
"123337003&xYRKu72&2:22sV0r037809;33:::3s80hxk77r000x0%:7M8780k:;",
":38037307;CLbMSh8>;$370V8051:3002#;:>8kCr28kmh88808r2#30C7:rVx:$",
">23822277;NSururbbSGSh0C083:2800;o2rsbKGb38xMxx73782&;sxr8r:MMk;",
"30082:0qr:xx38e0r0bkVr3u03::3ss0;$NVb>0NNs00hsbbu32%+20b22k730r0",
"22382>rr0:87303:>20038323>:20sk0X3SWr383bVh88rkkx0;+&0uV22uu32CS",
"u32380rr8&:2ur:;:28:#23&087esrr$#xAx000r7CV737uu72$380s037rhr:rL",
"C>$##%####;hM0:$$:2&o73>30rr073XrKA8080h87Vs2237:#8xxs00778xVk2r",
"Gb83sr3:2hCKK2%##:3:Ok::;3s+oXO2IG733>7r0;rsg2;:+2hxx300880hxr7&",
"RINMCVVCGYKCN&O+%3r2+r$$#+O+0hbAPr332;>832&8kr##3sbk27hr00027;+&",
"P837uxbNAx70Mr:3rsu2+0r0kNCSGMhbM332:%;2222:rh830bA822ks008#+&rR",
"80330hMMu03>rS0sMh3:+7GPYSk3>23hs233:%:03223&xr07b8073hk73$+sKWN",
"32:3rxs0027r>Gbrrr#o$kYk72>::>Orr2:2>>8u8723#MkkrAr222rr>:$&CIx7",
"&::27333323f00b:>+%rhCu000072:o>00$;>28r82::%MV3:uMN0-$2:2;$VIu:",
"&#&2:;22223xr%rhxrINsAh3333387$$8u%&:13382:+0Su>0d00xhr0::;:MGMu",
"sr32$$&2333u8+0VYEb2%bS8332>332+Ms:$::237>#:VM&2r00s22rbVs7>0rkh",
"ku83#o+:32382ouSN822%0TV222:233+CM3++#*22:oyA3%8r008:#rNNx7:388r",
"r0:8>$&:::23o%b8:3783$0N0:222:3$kNr3&%#OoO&hr+:33:>OX2h8&##&hu>8",
"f0#80bb&#+O:X7r$$2328r$ur:2:%oo$sAhksxkks03rr0:$#2X&hr%$$&=#AS:N",
"k2O3sAACbh>;%8:$233>20:;73#.o+2Ns:;3708083;hAKFx333V8$#::232STVk",
"h:@:227w0r00uk27053::82O238>$;kk23rur0333>okQWSBbVbM>$&22733xxr7",
"03%8>3302:>0As00832;$:%+uzh3+0Tr07ru78>83>ohE03,2r>sr;233222hs3+",
"3r32;>300>%hG08732;++O+8VN0:2UY0327r7>:082obS32:;3:2lM>%:237us3+",
"2rk0>:208:$Ph0732:$+o:kAk:28+IJr2>&:737sr2OSS>:&%2077V0#$%7skx0$",
"$8bku720323S83322#Xo7ITr37rrXSAr:&;:ssruu3+GS3<:%3us%uh:2rkkr0r2",
"+NIAAVhk83h03>>;$ OrSV3300r7OxAC8$$:380ur2+SV32:$>0r3&h07usr3:72",
"+Ku830rM7;0;$+OOoO:M03377303#hGSAxr;+#273:#SV3>&%:707#r0NCr32$:2",
"+Vr080rr:;2>:>;:%:0Nr:23:>38OuNVMsMCb8:+##$NN2:;:27r0O08uGx>;%:1",
"+N083703+;20MAx0>2bGAb322337XhN0;;7vNVCx7&2xh2337rrr2Or0rN00>+;;",
"%C83333:X$7ASC0>:2uMCCZb2>:$#xk$#$%::3xsr78hr:300uu0%#s83733h7##",
"0A33222.#:ubr0227rCb08sACx&O3r0O+#%&>:72::8r::300uur%>Vs427:hhu0",
"CV3&%*.+3hur8330rrVbbr2bMx:20s3;&$$$&=33>$0hhs337803:3CC733202tx",
"hbu>+o#6hrsb733rr0kNk3$0ksr03x;;::;$=>0r>+uMSbs0290223nV7773rr3>",
";33:::3s80hxk77r000x0%:7M8780k:;223378003&xYRKu72&2:22sV0r037809",
"2#;:>8kCr28kmh88808r2#30C7:rVx:$:38037307;CLbMSh8>;$370V8032:300",
";o2rsbKGb38xMxx73782&;sxr8r:MMk;>23822277;NSururbbSGSh0C883:2800",
";$NVb>0NNa00hsbbu32%+20b22k730u030082:80r:xx38e0r0bkVr3u03::3ps0",
"X3SWr383bVh88rkkx0;+&8uV>2uu32CS223822rr0:87303:>20038323>:20sk0",
"#xAx000r7CV737uu72$380h037rhr:rLu32380rr8&:2ur:;:28:#23&077esrr$",
"rKA8080h77Vs2237:#8xxs00778xVk2rC>$##%####;hM0;$$:2&o73>30rr073X",
"IG733>7r0;rsg3::+2hxx300880hxr7&Gb83sr3:2hCKK2%##:3:Ok::;3s+oXO2",
"Pr332;>832&8kr##3sbk27hr00027;+&RINMCVVCGYKCN&O+%3r2+r$$#+O+0hbA",
"M332:%;2222:rh830bA822ks008#+&rRP837uxbNAx70Mr:3rsu2+0r0kNCSGMhb",
"s233:%:03224&xr07b8073hk73$+sKWN80330hMMu03>rS0sMh3:+7GPYSk3>>3h",
"r2:2>>8u8733#MkkrAr222rr>:#&CIx732:3rxs0027r>Gbrrr#o$kYk722::>Or",
"00$;>28r82::%MV3:uMN0-$2:2;$VIu:&::27333323f00b:>+%rhCu000072:o>",
"8u%&:13382:+0Su>0d00xhr0::;:MGMu&#&2:;22223xr%rhxrINsAh3333387$$",
"Ms:$::237>#:VM&2r00s22rbVs7>0rkhsr32$$&2333u8+0VYEb2%bS8332>332+",
"CM3++#*22:oyA3%8r008:#rNNx7:388rku83#o+:32382ouSN822%0TV222:233+",
"kNr3&%#OoO&hr+:33:>OX2h8&##&hu,8r0:8>$&:::23o%b8:3783$0N0:222:3$"
};
